<mxfile host="app.diagrams.net" modified="2022-10-12T06:00:03.340Z" agent="5.0 (Windows NT 10.0; Win64; x64) AppleWebKit/537.36 (KHTML, like Gecko) Chrome/106.0.0.0 Safari/537.36 Edg/106.0.1370.34" etag="rUKWOO5-Hpp8ys0Yq0-i" version="20.4.0" type="github">
  <diagram name="Page-1" id="74e2e168-ea6b-b213-b513-2b3c1d86103e">
    <mxGraphModel dx="1352" dy="790" grid="1" gridSize="10" guides="1" tooltips="1" connect="1" arrows="1" fold="1" page="1" pageScale="1" pageWidth="1100" pageHeight="850" background="none" math="0" shadow="0">
      <root>
        <mxCell id="0" />
        <mxCell id="1" parent="0" />
        <mxCell id="gQRXaEbRiCHOpDiDAZMK-5" style="edgeStyle=orthogonalEdgeStyle;rounded=0;orthogonalLoop=1;jettySize=auto;html=1;exitX=0.5;exitY=1;exitDx=0;exitDy=0;exitPerimeter=0;" edge="1" parent="1" source="gQRXaEbRiCHOpDiDAZMK-2" target="gQRXaEbRiCHOpDiDAZMK-3">
          <mxGeometry relative="1" as="geometry" />
        </mxCell>
        <mxCell id="gQRXaEbRiCHOpDiDAZMK-6" style="edgeStyle=orthogonalEdgeStyle;rounded=0;orthogonalLoop=1;jettySize=auto;html=1;exitX=0.5;exitY=1;exitDx=0;exitDy=0;exitPerimeter=0;entryX=0.5;entryY=0;entryDx=0;entryDy=0;" edge="1" parent="1" source="gQRXaEbRiCHOpDiDAZMK-2" target="gQRXaEbRiCHOpDiDAZMK-4">
          <mxGeometry relative="1" as="geometry" />
        </mxCell>
        <mxCell id="gQRXaEbRiCHOpDiDAZMK-2" value="开始" style="strokeWidth=2;html=1;shape=mxgraph.flowchart.terminator;whiteSpace=wrap;" vertex="1" parent="1">
          <mxGeometry x="520" y="40" width="60" height="40" as="geometry" />
        </mxCell>
        <mxCell id="gQRXaEbRiCHOpDiDAZMK-13" style="edgeStyle=orthogonalEdgeStyle;rounded=0;orthogonalLoop=1;jettySize=auto;html=1;exitX=0.5;exitY=1;exitDx=0;exitDy=0;startArrow=none;startFill=0;endArrow=none;endFill=0;" edge="1" parent="1" source="gQRXaEbRiCHOpDiDAZMK-3">
          <mxGeometry relative="1" as="geometry">
            <mxPoint x="550" y="200" as="targetPoint" />
          </mxGeometry>
        </mxCell>
        <mxCell id="gQRXaEbRiCHOpDiDAZMK-3" value="串列圆柱数值仿真" style="rounded=1;whiteSpace=wrap;html=1;absoluteArcSize=1;arcSize=14;strokeWidth=2;" vertex="1" parent="1">
          <mxGeometry x="420" y="120" width="100" height="40" as="geometry" />
        </mxCell>
        <mxCell id="gQRXaEbRiCHOpDiDAZMK-14" style="edgeStyle=orthogonalEdgeStyle;rounded=0;orthogonalLoop=1;jettySize=auto;html=1;exitX=0.5;exitY=1;exitDx=0;exitDy=0;startArrow=none;startFill=0;endArrow=none;endFill=0;" edge="1" parent="1" source="gQRXaEbRiCHOpDiDAZMK-4">
          <mxGeometry relative="1" as="geometry">
            <mxPoint x="550" y="190" as="targetPoint" />
            <Array as="points">
              <mxPoint x="630" y="180" />
              <mxPoint x="550" y="180" />
            </Array>
          </mxGeometry>
        </mxCell>
        <mxCell id="gQRXaEbRiCHOpDiDAZMK-4" value="简化机翼模型数值仿真" style="rounded=1;whiteSpace=wrap;html=1;absoluteArcSize=1;arcSize=14;strokeWidth=2;" vertex="1" parent="1">
          <mxGeometry x="580" y="120" width="100" height="40" as="geometry" />
        </mxCell>
        <mxCell id="gQRXaEbRiCHOpDiDAZMK-15" style="edgeStyle=orthogonalEdgeStyle;rounded=0;orthogonalLoop=1;jettySize=auto;html=1;exitX=0.5;exitY=0;exitDx=0;exitDy=0;startArrow=classic;startFill=1;endArrow=none;endFill=0;" edge="1" parent="1" source="gQRXaEbRiCHOpDiDAZMK-7">
          <mxGeometry relative="1" as="geometry">
            <mxPoint x="550" y="200" as="targetPoint" />
            <Array as="points">
              <mxPoint x="470" y="230" />
              <mxPoint x="550" y="230" />
            </Array>
          </mxGeometry>
        </mxCell>
        <mxCell id="gQRXaEbRiCHOpDiDAZMK-20" style="edgeStyle=orthogonalEdgeStyle;rounded=0;orthogonalLoop=1;jettySize=auto;html=1;exitX=0.5;exitY=1;exitDx=0;exitDy=0;startArrow=none;startFill=0;endArrow=classic;endFill=1;" edge="1" parent="1" source="gQRXaEbRiCHOpDiDAZMK-7" target="gQRXaEbRiCHOpDiDAZMK-19">
          <mxGeometry relative="1" as="geometry" />
        </mxCell>
        <mxCell id="gQRXaEbRiCHOpDiDAZMK-7" value="在圆柱前安装阻尼网，探究其降噪效果" style="rounded=1;whiteSpace=wrap;html=1;absoluteArcSize=1;arcSize=14;strokeWidth=2;" vertex="1" parent="1">
          <mxGeometry x="420" y="250" width="100" height="50" as="geometry" />
        </mxCell>
        <mxCell id="gQRXaEbRiCHOpDiDAZMK-16" style="edgeStyle=orthogonalEdgeStyle;rounded=0;orthogonalLoop=1;jettySize=auto;html=1;exitX=0.5;exitY=0;exitDx=0;exitDy=0;startArrow=classic;startFill=1;endArrow=none;endFill=0;" edge="1" parent="1" source="gQRXaEbRiCHOpDiDAZMK-8">
          <mxGeometry relative="1" as="geometry">
            <mxPoint x="550" y="230" as="targetPoint" />
            <Array as="points">
              <mxPoint x="630" y="230" />
            </Array>
          </mxGeometry>
        </mxCell>
        <mxCell id="gQRXaEbRiCHOpDiDAZMK-21" style="edgeStyle=orthogonalEdgeStyle;rounded=0;orthogonalLoop=1;jettySize=auto;html=1;exitX=0.5;exitY=1;exitDx=0;exitDy=0;entryX=0.5;entryY=0;entryDx=0;entryDy=0;startArrow=none;startFill=0;endArrow=classic;endFill=1;" edge="1" parent="1" source="gQRXaEbRiCHOpDiDAZMK-8" target="gQRXaEbRiCHOpDiDAZMK-19">
          <mxGeometry relative="1" as="geometry" />
        </mxCell>
        <mxCell id="gQRXaEbRiCHOpDiDAZMK-8" value="在简化机翼模型后面安装阻尼网，探究其降噪效果" style="rounded=1;whiteSpace=wrap;html=1;absoluteArcSize=1;arcSize=14;strokeWidth=2;" vertex="1" parent="1">
          <mxGeometry x="580" y="250" width="100" height="50" as="geometry" />
        </mxCell>
        <mxCell id="gQRXaEbRiCHOpDiDAZMK-18" value="确定合适的数值方法" style="text;html=1;align=center;verticalAlign=middle;resizable=0;points=[];autosize=1;strokeColor=none;fillColor=none;" vertex="1" parent="1">
          <mxGeometry x="545" y="195" width="130" height="30" as="geometry" />
        </mxCell>
        <mxCell id="gQRXaEbRiCHOpDiDAZMK-25" style="edgeStyle=orthogonalEdgeStyle;rounded=0;orthogonalLoop=1;jettySize=auto;html=1;exitX=0.5;exitY=1;exitDx=0;exitDy=0;startArrow=none;startFill=0;endArrow=classic;endFill=1;" edge="1" parent="1" source="gQRXaEbRiCHOpDiDAZMK-19" target="gQRXaEbRiCHOpDiDAZMK-24">
          <mxGeometry relative="1" as="geometry" />
        </mxCell>
        <mxCell id="gQRXaEbRiCHOpDiDAZMK-19" value="发展模化方法，得到阻尼网数值模型" style="rounded=1;whiteSpace=wrap;html=1;absoluteArcSize=1;arcSize=14;strokeWidth=2;" vertex="1" parent="1">
          <mxGeometry x="500" y="370" width="100" height="50" as="geometry" />
        </mxCell>
        <mxCell id="gQRXaEbRiCHOpDiDAZMK-22" value="阻尼网模化" style="text;html=1;align=center;verticalAlign=middle;resizable=0;points=[];autosize=1;strokeColor=none;fillColor=none;" vertex="1" parent="1">
          <mxGeometry x="550" y="340" width="80" height="30" as="geometry" />
        </mxCell>
        <mxCell id="gQRXaEbRiCHOpDiDAZMK-23" style="edgeStyle=orthogonalEdgeStyle;rounded=0;orthogonalLoop=1;jettySize=auto;html=1;exitX=0.5;exitY=1;exitDx=0;exitDy=0;startArrow=none;startFill=0;endArrow=classic;endFill=1;" edge="1" parent="1" source="gQRXaEbRiCHOpDiDAZMK-19" target="gQRXaEbRiCHOpDiDAZMK-19">
          <mxGeometry relative="1" as="geometry" />
        </mxCell>
        <mxCell id="gQRXaEbRiCHOpDiDAZMK-24" value="优化降噪效果" style="rounded=1;whiteSpace=wrap;html=1;absoluteArcSize=1;arcSize=14;strokeWidth=2;" vertex="1" parent="1">
          <mxGeometry x="500" y="440" width="100" height="50" as="geometry" />
        </mxCell>
      </root>
    </mxGraphModel>
  </diagram>
</mxfile>
